# xmcd
#
# Track frame offsets:
# 150
# 35293
# 42573
# 55433
# 64305
# 77768
# 100560
# 115958
# 122843
# 132113
# 150368
# 155910
# 161585
# 165905
# 182393
# 191755
# 227898
# 237538
# 252765
# 262108
# 269003
#
# Disc length: 3781 seconds
#
# Revision: 8
# Processed by: cddbd v1.5.2PL0 Copyright (c) Steve Scherf et al.
# Submitted via: plextools 2.36
#
DISCID=250ec315
DTITLE=Handel, George Frideric - Fireworks - Water Music (Neville Marriner)
DYEAR=1986
DGENRE=Classical
TTITLE0=Handel, George Frideric - Music for the Royal Fireworks - Ouverture
TTITLE1=Handel, George Frideric - Music for the Royal Fireworks - Bourrée
TTITLE2=Handel, George Frideric - Music for the Royal Fireworks - La Paix
TTITLE3=Handel, George Frideric - Music for the Royal Fireworks - La Réjouissance
TTITLE4=Handel, George Frideric - Music for the Royal Fireworks - Minuet and Trio
TTITLE5=Handel, George Frideric - Water Music Suite in G Major - Minuet and Trio
TTITLE6=Handel, George Frideric - Water Music Suite in G Major - Rigaudon I and II
TTITLE7=Handel, George Frideric - Water Music Suite in G Major - Gigue
TTITLE8=Handel, George Frideric - Water Music Suite in D Major - Prelude
TTITLE9=Handel, George Frideric - Water Music Suite in D Major - Hornpipe
TTITLE10=Handel, George Frideric - Water Music Suite in D Major - Minuet
TTITLE11=Handel, George Frideric - Water Music Suite in D Major - Lentement
TTITLE12=Handel, George Frideric - Water Music Suite in D Major - Bourrée
TTITLE13=Handel, George Frideric - Water Music Suite in F Major - Ouverture
TTITLE14=Handel, George Frideric - Water Music Suite in F Major - Adagio E Staccato
TTITLE15=Handel, George Frideric - Water Music Suite in F Major - Hornpipe and Andante
TTITLE16=Handel, George Frideric - Water Music Suite in F Major - Jig
TTITLE17=Handel, George Frideric - Water Music Suite in F Major - Air
TTITLE18=Handel, George Frideric - Water Music Suite in F Major - Minuet
TTITLE19=Handel, George Frideric - Water Music Suite in F Major - Bourrée and Hornpipe
TTITLE20=Handel, George Frideric - Water Music Suite in F Major - Gavotte
EXTD=
EXTT0=
EXTT1=
EXTT2=
EXTT3=
EXTT4=
EXTT5=
EXTT6=
EXTT7=
EXTT8=
EXTT9=
EXTT10=
EXTT11=
EXTT12=
EXTT13=
EXTT14=
EXTT15=
EXTT16=
EXTT17=
EXTT18=
EXTT19=
EXTT20=
PLAYORDER=
